<?xml version="1.0" standalone="no"?>
<!DOCTYPE svg PUBLIC "-//W3C//DTD SVG 20010904//EN"
 "http://www.w3.org/TR/2001/REC-SVG-20010904/DTD/svg10.dtd">
<svg version="1.0" xmlns="http://www.w3.org/2000/svg"
 width="365.000000pt" height="67.000000pt" viewBox="0 0 365.000000 67.000000"
 preserveAspectRatio="xMidYMid meet">

<g transform="translate(0.000000,67.000000) scale(0.100000,-0.100000)"
fill="#000000" stroke="none">
<path d="M2220 435 c-96 -96 -131 -138 -122 -144 10 -6 11 -18 2 -54 -13 -59
1 -130 38 -186 l26 -41 190 0 c210 0 195 -5 238 75 22 42 29 127 15 178 -6 22
-4 27 10 27 13 0 8 10 -20 38 -37 38 -37 38 -37 125 l0 87 -50 0 -50 0 0 -37
-1 -38 -47 53 c-26 28 -49 52 -52 52 -3 0 -66 -61 -140 -135z m261 -162 c23
-26 18 -142 -6 -175 -44 -59 -135 -76 -196 -35 -63 42 -87 132 -54 197 l16 30
113 0 c93 0 116 -3 127 -17z"/>
<path d="M70 295 l0 -255 29 0 c17 0 31 6 35 15 5 13 11 13 43 -5 49 -26 90
-25 143 3 53 28 90 90 90 151 0 55 -36 125 -79 153 -46 31 -127 32 -165 2
l-26 -20 0 105 0 106 -35 0 -35 0 0 -255z m229 -1 c51 -43 51 -134 0 -180 -33
-29 -96 -25 -125 9 -89 103 23 257 125 171z"/>
<path d="M1220 295 l0 -255 35 0 35 0 0 103 c0 84 4 108 20 134 22 37 61 51
94 34 40 -22 50 -51 54 -164 l4 -107 34 0 34 0 0 93 c0 113 -12 159 -54 204
-27 30 -41 36 -84 41 -38 3 -58 0 -77 -12 l-25 -16 0 100 0 100 -35 0 -35 0 0
-255z"/>
<path d="M1970 295 l0 -255 35 0 35 0 0 255 0 255 -35 0 -35 0 0 -255z"/>
<path d="M551 363 c-75 -37 -114 -159 -73 -233 47 -85 140 -120 214 -82 30 16
38 17 42 6 3 -8 19 -14 36 -14 l30 0 -2 168 -3 167 -27 3 c-19 2 -28 -2 -33
-18 l-6 -20 -26 20 c-32 25 -104 26 -152 3z m132 -64 c15 -11 31 -38 37 -60 9
-33 8 -46 -8 -82 -35 -79 -119 -85 -163 -13 -61 99 47 224 134 155z"/>
<path d="M943 362 c-42 -23 -70 -60 -84 -113 -41 -155 142 -283 261 -183 35
30 38 44 9 62 -17 11 -24 10 -50 -13 -35 -29 -58 -31 -98 -10 -66 34 -76 131
-20 188 26 26 35 29 70 24 22 -3 49 -13 60 -23 18 -16 20 -16 38 0 26 23 17
43 -30 66 -47 24 -113 25 -156 2z"/>
<path d="M1690 373 c-24 -9 -71 -56 -87 -87 -23 -44 -19 -117 8 -167 46 -83
147 -110 242 -65 41 20 45 31 22 56 -15 16 -18 16 -56 -3 -35 -17 -46 -18 -79
-8 -35 10 -80 51 -80 72 0 5 57 9 126 9 l126 0 -7 43 c-9 55 -30 99 -61 128
-18 17 -38 23 -82 26 -31 1 -64 0 -72 -4z m115 -78 c46 -45 35 -55 -60 -55
-54 0 -85 4 -85 11 0 6 13 24 29 40 38 37 82 39 116 4z"/>
<path d="M2677 373 c-4 -3 -7 -80 -7 -170 l0 -163 34 0 34 0 4 116 c3 114 4
116 32 141 22 18 38 24 62 21 35 -4 44 5 44 43 0 16 -7 19 -44 19 -28 0 -52
-7 -68 -19 -24 -19 -24 -19 -36 0 -12 19 -42 26 -55 12z"/>
<path d="M3056 229 c-53 -41 -21 -139 45 -139 31 0 67 24 51 34 -6 3 -13 2
-17 -4 -10 -16 -51 -11 -68 8 -39 42 -1 109 54 97 30 -7 41 8 13 19 -28 11
-51 6 -78 -15z"/>
<path d="M3224 213 c-9 -21 -24 -57 -34 -80 -16 -36 -17 -43 -4 -43 8 0 19 11
24 25 8 20 16 25 44 25 28 0 35 -4 40 -25 4 -14 13 -25 21 -25 13 0 13 5 -1
38 -9 20 -23 56 -32 80 -20 52 -38 53 -58 5z m46 -40 c0 -7 -9 -13 -20 -13
-23 0 -24 4 -9 32 9 17 13 18 20 7 5 -8 9 -20 9 -26z"/>
<path d="M3345 230 c21 -65 55 -135 67 -138 10 -2 26 23 46 72 36 85 36 86 22
86 -6 0 -24 -28 -39 -62 -27 -60 -29 -62 -39 -38 -31 80 -42 100 -52 100 -7 0
-9 -8 -5 -20z"/>
<path d="M3510 170 l0 -80 50 0 c28 0 50 5 50 10 0 6 -18 10 -40 10 -36 0 -40
3 -40 25 0 22 4 25 35 25 44 0 46 18 3 22 -25 2 -34 8 -36 26 -3 20 1 22 37
22 23 0 41 5 41 10 0 6 -22 10 -50 10 l-50 0 0 -80z"/>
</g>
</svg>
