<svg
        width="429.00000000000006"
        height="62.044790024781804"
        viewBox="0 0 474.2296269003687 68.58619492905359"
        >
        <defs id="SvgjsDefs1013"></defs>
        <g
          id="SvgjsG1014"
          featurekey="nameLeftFeature-0"
          transform="matrix(2.025356792360959,0,0,2.025356792360959,-1.2601572227403495,7.448318417909771)"
          fill="#000000">
          <path
            d="M6.6816 13.170200000000001 c2.7842 0.14119 4.279 1.1995 4.279 3.1658 c0 2.3842 -1.9048 3.6642 -5.1014 3.6642 l-5.0792 0 c-0.093008 0 -0.15781 -0.064804 -0.15781 -0.15801 c0 -0.089004 0.064804 -0.15381 0.15781 -0.15381 l0.51801 0 c0.2972 0 0.48202 -0.229 0.48202 -0.478 l0 -11.601 c0 -0.249 -0.1848 -0.478 -0.48202 -0.478 l-0.51801 0 c-0.093008 0 -0.15781 -0.064804 -0.15781 -0.15381 c0 -0.093204 0.064804 -0.15801 0.15781 -0.15801 l4.6676 0 c2.4724 0 4.6544 0.8428 4.6544 3.198 c0 1.5352 -1.1062 2.8332 -3.4204 3.1522 z M3.4854 7.609999999999999 l0.00019531 5.4886 l1.8718 0 c1.6 0 2.9392 -1.2642 2.9392 -3.0138 c0 -1.664 -0.8332 -2.9488 -2.965 -2.9526 l-1.3724 0 c-0.2902 0 -0.47378 0.2322 -0.47378 0.47782 z M5.7326 19.68866 c2.34 0 3.4192 -1.4684 3.4192 -3.3402 c0 -1.7282 -1.1772 -2.9302 -3.4192 -2.9302 l-2.2462 0 l0 5.7924 c0 0.249 0.1848 0.478 0.48202 0.478 l1.7642 0 z M24.889000000000003 19.6882 c0.089004 0 0.15762 0.064804 0.15762 0.15801 c0 0.089004 -0.069004 0.15381 -0.15801 0.15381 l-4.5034 0 c-0.089004 0 -0.15801 -0.064804 -0.15801 -0.15381 c0 -0.093204 0.069004 -0.15801 0.15801 -0.15801 l0.72 0 c0.402 0 0.62738 -0.303 0.47998 -0.7 l-1.239 -3.249 l-5.1044 0 l-1.2558 3.249 c-0.14 0.3616 0.08039 0.7 0.48 0.7 l0.72 0 c0.089004 0 0.15801 0.064804 0.15801 0.15801 c0 0.089004 -0.069004 0.15381 -0.15801 0.15381 l-2.9606 0 c-0.089004 0 -0.15801 -0.064804 -0.15801 -0.15381 c0 -0.093204 0.069004 -0.15801 0.15801 -0.15801 l0.48 0 c0.52 0 0.7558 -0.26 0.92 -0.7 l4.7614 -12.241 l0.37801 0 l4.7042 12.261 c0.1442 0.36 0.42 0.68 0.98 0.68 l0.44 0 z M15.366800000000001 15.4316 l4.8658 0 l-2.4148 -6.332 z M36.011 8.939 c0 -0.8118 -1.2506 -1.888 -3.4436 -1.888 c-2.578 0 -4.5214 1.8076 -4.5214 6.369 c0 3.8214 1.5352 6.2442 4.5462 6.2442 c2.1696 0 3.6558 -1.433 4.0826 -2.3992 c0.06961 -0.13439 0.13021 -0.1626 0.19502 -0.1626 c0.1048 0 0.16961 0.0808 0.15381 0.18561 c-0.1268 0.442 -0.5606 1.0592 -1.2254 1.586 c-0.78 0.6668 -1.9428 1.255 -3.4504 1.255 c-3.9124 0 -6.111 -2.8532 -6.111 -6.709 c0 -4.3752 2.6524 -6.729 6.0682 -6.729 c2.9924 0 4.7544 1.6118 4.7544 3.2298 c0 0.947 -0.5104 1.3484 -0.99658 1.3484 c-0.458 0 -0.89602 -0.333 -0.89602 -0.8834 c0 -0.7172 0.8442 -0.87442 0.8442 -1.4468 z M51.064 19.6882 c0.093204 0 0.15762 0.06461 0.15762 0.15361 c0 0.093204 -0.064804 0.15801 -0.15781 0.15801 l-3.702 0 c-0.093008 0 -0.15781 -0.064804 -0.15781 -0.15801 c0 -0.089004 0.064804 -0.15381 0.15801 -0.15381 l0.51801 0 c0.2906 0 0.48122 -0.2178 0.48122 -0.4618 l0 -6.0362 l-6.7378 0 l0 6.0344 c0 0.2436 0.1898 0.4636 0.48122 0.4636 l0.51801 0 c0.093008 0 0.15781 0.064804 0.15781 0.15381 c0 0.093204 -0.064804 0.15801 -0.15781 0.15801 l-3.702 0 c-0.093008 0 -0.15781 -0.064804 -0.15781 -0.15801 c0 -0.089004 0.064804 -0.15381 0.15781 -0.15381 l0.51801 0 c0.2906 0 0.48122 -0.2178 0.48122 -0.4618 l0 -11.631 c0 -0.2444 -0.1898 -0.4634 -0.48122 -0.4634 l-0.51801 0 c-0.093008 0 -0.15781 -0.064804 -0.15781 -0.15381 c0 -0.093204 0.064804 -0.15801 0.15781 -0.15801 l3.702 0 c0.093008 0 0.15781 0.064804 0.15781 0.15801 c0 0.089004 -0.064804 0.15381 -0.15781 0.15381 l-0.51801 0 c-0.2906 0 -0.48122 0.219 -0.48122 0.4618 l0 5.285 l6.7378 0 l0 -5.2834 c0 -0.2444 -0.1898 -0.4634 -0.48122 -0.4634 l-0.51801 0 c-0.093008 0 -0.15781 -0.064804 -0.15781 -0.15381 c0 -0.093204 0.064804 -0.15801 0.15781 -0.15801 l3.702 0 c0.093008 0 0.15781 0.064804 0.15781 0.15801 c0 0.089004 -0.064804 0.15381 -0.15781 0.15381 l-0.51801 0 c-0.2906 0 -0.48122 0.219 -0.48122 0.4618 l0 11.631 c0 0.2436 0.1898 0.4636 0.48122 0.4636 l0.51801 0 z M61.469 16.3572 c0.089004 0 0.154 0.065234 0.154 0.15844 l0 3.4848 l-9.002 0 c-0.093008 0 -0.15781 -0.064804 -0.15781 -0.15801 c0 -0.089004 0.064804 -0.15381 0.15781 -0.15381 l0.51801 0 c0.2906 0 0.48122 -0.219 0.48122 -0.4618 l0 -11.631 c0 -0.2436 -0.1898 -0.4636 -0.48122 -0.4636 l-0.51801 0 c-0.093008 0 -0.15781 -0.064804 -0.15781 -0.15381 c0 -0.093204 0.064804 -0.15801 0.15781 -0.15801 l8.9234 0 l0 3.4848 c0 0.093204 -0.064804 0.15801 -0.15781 0.15801 c-0.089004 0 -0.15381 -0.064804 -0.15381 -0.15801 l0 -0.80961 c0 -1.38 -0.82 -2.3634 -2.46 -2.3634 l-2.9678 0 c-0.2906 0 -0.48122 0.2178 -0.48122 0.4618 l0 5.3726 l1.5878 0 c1.6304 0 1.811 -0.5676 1.811 -1.4958 l0 -0.18279 c0 -0.089004 0.069004 -0.15801 0.15801 -0.15801 s0.15801 0.069004 0.15801 0.15801 l0 3.6772 c0 0.089004 -0.069004 0.15801 -0.15801 0.15801 s-0.15801 -0.064804 -0.15801 -0.17041 l0 -0.19859 c0 -0.8918 -0.1724 -1.4676 -1.811 -1.4676 l-1.5878 0 l0 5.9386 c0 0.2444 0.1898 0.4634 0.48122 0.4634 l3.0462 0 c1.64 0 2.46 -0.9834 2.46 -2.3634 l0 -0.80961 c0 -0.093204 0.064804 -0.15801 0.15781 -0.15801 z M72.411 16.5158 c0.089004 0 0.154 0.06463 0.154 0.15783 l0 3.3262 l-8.604 0 c-0.093008 0 -0.15781 -0.064804 -0.15781 -0.15801 c0 -0.089004 0.064804 -0.15381 0.15781 -0.15381 l0.51801 0 c0.2906 0 0.48122 -0.2178 0.48122 -0.4618 l0 -11.631 c0 -0.2444 -0.1898 -0.4634 -0.48122 -0.4634 l-0.51801 0 c-0.093008 0 -0.15781 -0.064804 -0.15781 -0.15381 c0 -0.093204 0.064804 -0.15801 0.15781 -0.15801 l3.702 0 c0.093008 0 0.15781 0.064804 0.15781 0.15801 c0 0.089004 -0.064804 0.15381 -0.15781 0.15381 l-0.51801 0 c-0.2906 0 -0.48122 0.219 -0.48122 0.4618 l0 11.631 c0 0.2436 0.1898 0.4636 0.48122 0.4636 l2.6482 0 c1.6276 0 2.46 -1.3048 2.46 -2.6516 l0 -0.36279 c0 -0.093204 0.064804 -0.15801 0.15781 -0.15801 z M79.9144 6.695 c3.7924 0 5.998 2.8256 5.998 6.6456 s-2.2056 6.7882 -5.998 6.7882 c-3.7966 0 -5.998 -2.9682 -5.998 -6.7882 s2.2014 -6.6456 5.998 -6.6456 z M79.9144 19.78558 c3.0958 0 4.1888 -3.0848 4.1888 -6.4448 s-1.093 -6.302 -4.1888 -6.302 s-4.1888 2.942 -4.1888 6.302 s1.093 6.4448 4.1888 6.4448 z M98.336 19.1628 c0.084804 0 0.13701 0.060606 0.13701 0.14121 c0 0.2382 -0.7188 0.82282 -1.6434 0.82282 c-3.9444 0 -0.1292 -6.491 -5.642 -6.491 l-0.70439 0 l0 5.589 c0 0.2436 0.1898 0.4636 0.48122 0.4636 l0.51801 0 c0.093008 0 0.15781 0.064804 0.15781 0.15381 c0 0.093204 -0.064804 0.15801 -0.15781 0.15801 l-3.702 0 c-0.093008 0 -0.15781 -0.064804 -0.15781 -0.15801 c0 -0.089004 0.064804 -0.15381 0.15781 -0.15381 l0.51801 0 c0.2906 0 0.48122 -0.2178 0.48122 -0.4618 l0 -11.631 c0 -0.2444 -0.1898 -0.4634 -0.48122 -0.4634 l-0.51801 0 c-0.093008 0 -0.15781 -0.064804 -0.15781 -0.15381 c0 -0.093204 0.064804 -0.15801 0.15781 -0.15801 l4.3834 0 c2.651 0 4.442 1.042 4.442 3.162 c0 1.87 -1.4616 3.1526 -3.9212 3.472 c5.22 0.72 2.6854 6.175 4.6562 6.175 c0.6186 0 0.802 -0.4662 0.9952 -0.4662 z M90.483 13.32 l1.0738 0.00019531 c2.4718 0 3.269 -1.758 3.269 -3.3132 c0 -1.7808 -0.8594 -2.8752 -3.1138 -2.8752 l-0.74779 0 c-0.2906 0 -0.48122 0.219 -0.48122 0.4618 l0 5.7264 z M103.4462 20.129 c-2.3166 0 -4.0752 -1.3068 -4.0752 -2.8026 c0 -0.7228 0.391 -1.1594 0.87298 -1.1594 c0.3704 0 0.8042 0.2456 0.8042 0.7642 c0 0.649 -0.7158 0.771 -0.7158 1.271 c0 0.9118 1.7248 1.5794 2.9482 1.5794 c1.9634 0 3.5116 -1.0248 3.5116 -2.8716 c0 -3.653 -7.129 -2.3648 -7.129 -6.904 c0 -1.7704 1.4062 -3.3146 4.1862 -3.3146 c2.2338 0 4.038 1.2214 4.038 2.7008 c0 0.7352 -0.391 1.1758 -0.869 1.1758 c-0.3744 0 -0.8082 -0.2496 -0.8082 -0.7682 c0 -0.6656 0.7118 -0.7546 0.7118 -1.2546 c0 -0.8994 -1.7248 -1.5062 -2.944 -1.5062 c-1.52 0 -3.1614 0.5406 -3.1614 2.5212 c0 3.2952 7.3276 2.1958 7.3276 6.9206 c0 1.6172 -1.4186 3.6482 -4.698 3.6482 z"></path>
        </g>
        <g
          id="SvgjsG1015"
          featurekey="inlineSymbolFeature-0"
          transform="matrix(0.6813986922012835,0,0,0.6813986922012835,229.23244003301824,-32.16928651768585)"
          fill="#000000">
          <g xmlns="http://www.w3.org/2000/svg">
            <path
              d="M186.4,145L186.4,145c-12.1-10.6-24.3-21-36.6-31.3c-6.2-5.1-12.4-10.3-18.6-15.3c-6.2-4.9-11.9-10.5-18.4-15.6   c-2-1.6-4-3.1-6.2-4.5c-1.1-0.7-2.2-1.4-3.3-2c-1-0.6-2.2-1.1-3.4-1c-0.6,0-1.2,0.2-1.8,0.4c-0.6,0.3-1,0.5-1.3,0.6   c-4.9,2.7-8.6,6.3-12.2,9.3c-0.9,0.8-1.8,1.5-2.8,2.2l-2.9,2.3L73,94.7L70,96.9c0-0.7,0-1.4,0-2.1c0-0.8-0.1-1.6-0.3-2.5   c-0.2-0.9-0.5-1.9-1.2-3c-0.8-1-1.8-1.8-2.7-2.2c-0.5-0.2-0.9-0.4-1.3-0.5c-0.4-0.1-0.8-0.2-1.2-0.3c-1.6-0.3-3-0.3-4.4-0.3   c-1.4,0-2.7,0.1-4,0.2c-1.3,0.1-2.5,0.2-3.5,0.2c-1.1,0-2.4-0.1-3.8-0.2c-1.4,0-3,0-4.8,0.5c-0.9,0.3-1.9,0.7-2.8,1.5   c-0.5,0.4-0.8,0.8-1.2,1.3c-0.3,0.5-0.6,1-0.8,1.5c-0.2,0.5-0.4,1-0.4,1.4c-0.1,0.4-0.2,0.8-0.2,1.2c-0.1,0.8-0.2,1.5-0.2,2.2   c-0.2,3,0.1,5.7,0.3,8.2l0.1,1.9l0.1,1.9c0,1.4,0.1,2.7,0.2,4c0.2,2.6,0.4,5.1,0.3,7.5c0,0.6-0.1,1.2-0.1,1.7   c-0.1,0.6-0.1,1.1-0.2,1.5c-0.2,0.8-0.5,1.3-1.3,2l-5.8,5l-5.9,5.2c-3.9,3.5-7.7,7-11.6,10.5v0c-1,0.9-0.1,2.1,1,1.3h0   c4.3-2.9,8.6-5.9,12.9-8.9l6.4-4.5l3.2-2.3c1-0.8,2-1.4,3.3-2.4c1.2-0.9,2.5-2.6,3.1-4.3c0.3-0.9,0.4-1.7,0.6-2.4   c0.1-0.7,0.2-1.4,0.3-2.2c0.2-2.8,0.1-5.6,0-8.1c0-1.3-0.1-2.6-0.1-3.8c0-0.6,0-1.4,0-2.1l-0.1-2c-0.2-2.6-0.4-5.2-0.2-7.4   c0-0.6,0.1-1.1,0.2-1.6c0-0.3,0.1-0.5,0.1-0.7c0-0.2,0.1-0.3,0.1-0.4c0.1-0.2,0.1-0.3,0.2-0.3c0-0.1,0.2-0.1,0.5-0.3   c0.6-0.2,1.6-0.3,2.7-0.2c1.1,0,2.4,0.2,3.8,0.2c1.6,0,2.9-0.1,4.1-0.2c1.2-0.1,2.4-0.2,3.6-0.2c1.1,0,2.3,0,3.1,0.2   c0.2,0,0.4,0.1,0.6,0.1c0.2,0,0.3,0.1,0.4,0.2c0.3,0.1,0.2,0.1,0.2,0.1c0,0,0.1,0.2,0.2,0.6c0.1,0.4,0.1,0.9,0.2,1.4   c0,1.1,0,2.2-0.1,3.5c-0.1,1.1,0,2.2,0.3,3.2l-2.4,1.9c-3.7,2.9-5.8,6.3-4.7,7.7c1.1,1.4,5,0.2,8.6-2.7l11.6-9.1l5.8-4.5l2.9-2.3   c0.9-0.7,2-1.6,3-2.4c3.8-3.2,7.3-6.6,11.1-8.6l0.3-0.2l0,0c0.9,0.6,2,1.2,2.9,1.8c2,1.3,3.9,2.7,5.7,4.1   c6.2,4.8,12.1,10.4,18.6,15.4c6.4,4.9,12.8,9.8,19.2,14.6c12.8,9.7,25.8,19.2,38.9,28.5h0C187.1,147.5,188,146.4,186.4,145z"></path>
            <path
              d="M42.5,64.1l1.7,3.2c0.5,1,0.9,1.9,1.1,2.6c0.2,0.8,0.1,1.1,0,1.3c-0.2,0.2-0.6,0.7-1.3,1.1c-0.7,0.4-0.8,2-0.2,3.7   c0.7,1.6,2.2,2.6,3.5,1.8C48.6,77,50,75.9,51,74c0.2-0.5,0.4-1,0.6-1.5c0.1-0.5,0.2-1,0.2-1.5c0-1-0.1-1.9-0.3-2.7   c-0.4-1.6-1-2.9-1.6-4l-1.7-3.2c-0.4-0.8-0.8-1.6-1.1-2.3c-0.2-0.7-0.4-1.3-0.5-1.9c-0.2-1.2,0.1-2,0.9-3.1c0.9-1.1,2.3-2,4-2.8   c1.6-0.8,3.4-1.4,5.3-2c0.5-0.1,0.4-1.6-0.1-1.6c-2-0.2-4.1-0.3-6.2,0c-2.1,0.3-4.3,0.9-6.4,2.4c-0.5,0.4-1,0.8-1.5,1.4   c-0.5,0.5-0.8,1.1-1.2,1.8c-0.3,0.6-0.5,1.3-0.7,2c-0.1,0.7-0.2,1.4-0.2,2.1c0,1.4,0.3,2.6,0.6,3.8C41.6,62.1,42,63.2,42.5,64.1z"></path>
            <path
              d="M56.2,57.7c-0.4,0.1-0.9,0.2-1.4,0.7c-0.5,0.5-0.7,1.4-0.6,2c0,0.6,0.2,1.1,0.4,1.5c0.7,1.6,1.5,2.6,2.4,3.5   c0.4,0.5,0.9,0.9,1.4,1.4l1.3,1.2c0,0,0,0,0.1,0.2c0.1,0.1,0.2,0.3,0.2,0.4c0,0.1,0.1,0.2,0.1,0.2c0,0.1,0,0.1,0,0.1   c0.1,0-0.1,0.7-0.9,1.7c-0.7,1-1.7,2.2-2.6,4c-0.2,0.4-0.1,1,0.4,1.5c0.4,0.5,1.2,0.9,2,1.1c0.8,0.3,1.7,0.4,2.3,0.4   c0.6,0.1,1,0.1,1.1-0.1c0.4-0.8,1.2-1.9,2.2-3.2c0.5-0.7,1-1.4,1.4-2.5c0.4-1,0.8-2.4,0.6-3.8c-0.1-0.6-0.2-1.1-0.4-1.6   c-0.2-0.5-0.4-0.9-0.7-1.3c-0.3-0.4-0.5-0.7-0.8-1c-0.3-0.3-0.7-0.8-1.2-1.1c-0.6-0.4-1.1-0.6-1.6-0.9l-1.5-0.8   c-0.9-0.5-1.9-1-2.5-1.4l-0.2-0.1c0,0,0,0-0.1,0c0,0,0,0-0.2,0c-0.1,0-0.2,0-0.2,0c0,0,0,0,0-0.1c0.1-0.2,0.3-0.3,0.6-0.5   c0.2-0.2,0-1.6-0.3-1.6C57,57.7,56.7,57.7,56.2,57.7z"></path>
            <path
              d="M168.1,145L168.1,145c-12.8-10.7-25.8-21.3-38.9-31.7l-9.9-7.8l-4.9-3.9l-2.5-1.9l-1.2-0.9c-0.3-0.3-0.7-0.6-1-0.9   c-1.5-1.4-3-2.9-5.1-4.4c-0.5-0.4-1.1-0.7-1.8-1c-0.4-0.2-0.7-0.3-1.2-0.4c-0.5-0.1-1-0.2-1.5-0.2c-2.1,0-3.5,0.8-4.7,1.5   c-2.2,1.5-3.7,3.1-5.1,4.2l-4.9,3.9l-24,19l-6,4.8c-2.1,1.6-4,3.3-6,4.9c-4,3.2-7.9,6.4-12,9.4c-1.9,1.4-3.4,3-4.4,4.2   c-0.5,0.6-0.8,1.2-0.9,1.7c0,0.1-0.1,0.2,0,0.3c0,0.1,0,0.1,0,0.2c0,0,0,0.2,0,0.3c0,0.1-0.1,0.3,0,0.3c0,0,0,0,0,0l-0.1,0.1h0   c-0.2,0.1-0.2,0.5,0.2,0.7c0.3,0.2,0.6,0.3,1,0.4c0.7,0.1,1.5,0.1,2.4-0.1c1.8-0.4,3.8-1.5,5.8-2.9c4.2-3.1,8.2-6.3,12.2-9.6   c2-1.6,4-3.3,5.9-4.8l6-4.8l24.1-19.1l4.9-3.9c1-0.8,1.8-1.5,2.5-2.2c0.7-0.7,1.4-1.3,2.1-1.7c0.6-0.4,1.1-0.6,1.2-0.5   c-0.2-0.1,0.5,0.1,1.2,0.6c1.4,0.9,2.9,2.3,4.5,3.7c0.4,0.4,0.8,0.7,1.4,1.1l1.3,1l2.5,1.9l5.1,3.7l10.2,7.4   c13.6,9.8,27.3,19.4,41.1,28.9v0C168.9,147.5,169.8,146.4,168.1,145z"></path>
          </g>
        </g>
        <g
          id="SvgjsG1016"
          featurekey="nameRightFeature-0"
          transform="matrix(2.025356792360959,0,0,2.025356792360959,365.38087288364324,7.448318417909771)"
          fill="#000000">
          <path
            d="M15.511 8.939 c0 -0.8118 -1.2506 -1.888 -3.4436 -1.888 c-2.578 0 -4.5214 1.8076 -4.5214 6.369 c0 3.8214 1.5352 6.2442 4.5462 6.2442 c2.1696 0 3.6558 -1.433 4.0826 -2.3992 c0.06961 -0.13439 0.13021 -0.1626 0.19502 -0.1626 c0.1048 0 0.16961 0.0808 0.15381 0.18561 c-0.1268 0.442 -0.5606 1.0592 -1.2254 1.586 c-0.78 0.6668 -1.9428 1.255 -3.4504 1.255 c-3.9124 0 -6.111 -2.8532 -6.111 -6.709 c0 -4.3752 2.6524 -6.729 6.0682 -6.729 c2.9924 0 4.7544 1.6118 4.7544 3.2298 c0 0.947 -0.5104 1.3484 -0.99658 1.3484 c-0.458 0 -0.89602 -0.333 -0.89602 -0.8834 c0 -0.7172 0.8442 -0.87442 0.8442 -1.4468 z M30.549 19.6882 c0.089004 0 0.15762 0.064804 0.15762 0.15801 c0 0.089004 -0.069004 0.15381 -0.15801 0.15381 l-4.5034 0 c-0.089004 0 -0.15801 -0.064804 -0.15801 -0.15381 c0 -0.093204 0.069004 -0.15801 0.15801 -0.15801 l0.72 0 c0.402 0 0.62738 -0.303 0.47998 -0.7 l-1.239 -3.249 l-5.1044 0 l-1.2558 3.249 c-0.14 0.3616 0.08039 0.7 0.48 0.7 l0.72 0 c0.089004 0 0.15801 0.064804 0.15801 0.15801 c0 0.089004 -0.069004 0.15381 -0.15801 0.15381 l-2.9606 0 c-0.089004 0 -0.15801 -0.064804 -0.15801 -0.15381 c0 -0.093204 0.069004 -0.15801 0.15801 -0.15801 l0.48 0 c0.52 0 0.7558 -0.26 0.92 -0.7 l4.7614 -12.241 l0.37801 0 l4.7042 12.261 c0.1442 0.36 0.42 0.68 0.98 0.68 l0.44 0 z M21.0268 15.4316 l4.8658 0 l-2.4148 -6.332 z M43.709 6.82 c0.089004 0 0.1582 0.064804 0.1582 0.15381 c0 0.093008 -0.069004 0.15781 -0.15801 0.15781 l-0.48 0 c-0.52 0 -0.7558 0.26 -0.92 0.7 l-4.7614 12.241 l-0.37801 0 l-4.7042 -12.261 c-0.1442 -0.36 -0.42 -0.68 -0.98 -0.68 l-0.44 0 c-0.089004 0 -0.15801 -0.064804 -0.15801 -0.15781 c0 -0.089004 0.069004 -0.15381 0.15801 -0.15381 l4.5034 0 c0.089004 0 0.15801 0.064804 0.15801 0.15381 c0 0.093008 -0.069004 0.15781 -0.15801 0.15781 l-0.72 0 c-0.402 0 -0.62738 0.303 -0.47998 0.7 l3.7674 9.8886 l3.832 -9.8886 c0.14 -0.3616 -0.08039 -0.7 -0.48 -0.7 l-0.72 0 c-0.089004 0 -0.15801 -0.064804 -0.15801 -0.15781 c0 -0.089004 0.069004 -0.15381 0.15801 -0.15381 l2.9606 0 z M53.589 16.3572 c0.089004 0 0.154 0.065234 0.154 0.15844 l0 3.4848 l-9.002 0 c-0.093008 0 -0.15781 -0.064804 -0.15781 -0.15801 c0 -0.089004 0.064804 -0.15381 0.15781 -0.15381 l0.51801 0 c0.2906 0 0.48122 -0.219 0.48122 -0.4618 l0 -11.631 c0 -0.2436 -0.1898 -0.4636 -0.48122 -0.4636 l-0.51801 0 c-0.093008 0 -0.15781 -0.064804 -0.15781 -0.15381 c0 -0.093204 0.064804 -0.15801 0.15781 -0.15801 l8.9234 0 l0 3.4848 c0 0.093204 -0.064804 0.15801 -0.15781 0.15801 c-0.089004 0 -0.15381 -0.064804 -0.15381 -0.15801 l0 -0.80961 c0 -1.38 -0.82 -2.3634 -2.46 -2.3634 l-2.9678 0 c-0.2906 0 -0.48122 0.2178 -0.48122 0.4618 l0 5.3726 l1.5878 0 c1.6304 0 1.811 -0.5676 1.811 -1.4958 l0 -0.18279 c0 -0.089004 0.069004 -0.15801 0.15801 -0.15801 s0.15801 0.069004 0.15801 0.15801 l0 3.6772 c0 0.089004 -0.069004 0.15801 -0.15801 0.15801 s-0.15801 -0.064804 -0.15801 -0.17041 l0 -0.19859 c0 -0.8918 -0.1724 -1.4676 -1.811 -1.4676 l-1.5878 0 l0 5.9386 c0 0.2444 0.1898 0.4634 0.48122 0.4634 l3.0462 0 c1.64 0 2.46 -0.9834 2.46 -2.3634 l0 -0.80961 c0 -0.093204 0.064804 -0.15801 0.15781 -0.15801 z"></path>
        </g>
      </svg>