<?xml version="1.0" encoding="UTF-8"?>
<svg width="700pt" height="700pt" version="1.1" viewBox="0 0 700 700" xmlns="http://www.w3.org/2000/svg">
 <g>
  <path d="m303.33 280c-30.941 0-60.617-12.293-82.496-34.172-21.879-21.879-34.168-51.555-34.168-82.496 0-30.941 12.289-60.617 34.168-82.496 21.879-21.879 51.555-34.168 82.496-34.168 30.941 0 60.617 12.289 82.496 34.168 21.879 21.879 34.172 51.555 34.172 82.496 0 30.941-12.293 60.617-34.172 82.496s-51.555 34.172-82.496 34.172zm0-186.67c-18.562 0-36.367 7.375-49.496 20.504-13.129 13.129-20.504 30.934-20.504 49.496 0 18.566 7.375 36.371 20.504 49.5 13.129 13.125 30.934 20.5 49.496 20.5 18.566 0 36.371-7.375 49.5-20.5 13.125-13.129 20.5-30.934 20.5-49.5 0-18.562-7.375-36.367-20.5-49.496-13.129-13.129-30.934-20.504-49.5-20.504z"/>
  <path d="m140 466.67c-6.1875 0-12.125-2.4609-16.5-6.8359s-6.832-10.309-6.832-16.5v-46.664c0-18.566 7.375-36.371 20.5-49.5 13.129-13.125 30.934-20.5 49.5-20.5h197.63c8.3359 0 16.039 4.4453 20.207 11.664 4.168 7.2188 4.168 16.117 0 23.336-4.168 7.2188-11.871 11.664-20.207 11.664h-197.63c-6.1914 0-12.125 2.4609-16.5 6.8359s-6.8359 10.309-6.8359 16.5v46.668-0.003907c0 6.1914-2.457 12.125-6.832 16.5s-10.312 6.8359-16.5 6.8359z"/>
  <path d="m466.67 490c-6.2031 0.035156-12.164-2.3984-16.566-6.7656l-46.668-46.668c-5.918-5.918-8.2305-14.547-6.0625-22.629 2.1641-8.0859 8.4805-14.402 16.566-16.566 8.082-2.168 16.711 0.14453 22.629 6.0625l30.102 30.332 76.766-77c5.918-5.918 14.547-8.2305 22.629-6.0625 8.0859 2.168 14.402 8.4805 16.566 16.566 2.168 8.0859-0.14453 16.711-6.0625 22.629l-93.332 93.332v0.003906c-4.4062 4.3672-10.367 6.8008-16.566 6.7656z"/>
 </g>
</svg>
